<svg width="842" height="225" viewBox="0 0 842 225" fill="none" xmlns="http://www.w3.org/2000/svg">
<path d="M149.605 48.2161L140.815 37.6132H239.912L155.904 169.742H228.791L236.65 180.345H136.737L220.745 48.2161H149.605Z" fill="white"/>
<path d="M288.796 182.384C280.368 182.384 272.892 180.277 266.367 176.063C259.842 171.849 254.677 166.072 250.87 158.732C247.2 151.255 245.365 142.759 245.365 133.244C245.365 123.728 247.268 115.3 251.074 107.96C254.88 100.619 260.182 94.9099 266.979 90.8318C273.775 86.6178 281.592 84.5108 290.428 84.5108C298.991 84.5108 306.468 86.4819 312.857 90.424C319.382 94.3661 324.411 99.8715 327.946 106.94C331.616 113.873 333.451 121.893 333.451 131.001C333.451 131.816 333.383 132.7 333.247 133.651C333.247 134.603 333.179 135.419 333.043 136.098H252.094V126.923H325.091L320.605 133.244C320.877 132.564 321.149 131.68 321.421 130.593C321.829 129.369 322.033 128.214 322.033 127.127C322.033 120.738 320.605 115.028 317.751 109.999C315.032 104.969 311.294 101.027 306.536 98.1723C301.778 95.3177 296.409 93.8904 290.428 93.8904C283.495 93.8904 277.446 95.5216 272.28 98.784C267.251 101.911 263.308 106.396 260.454 112.242C257.599 117.951 256.172 124.748 256.172 132.632C256.172 140.652 257.531 147.653 260.25 153.634C263.105 159.615 267.047 164.237 272.076 167.499C277.242 170.762 283.223 172.393 290.02 172.393C297.224 172.393 303.477 170.83 308.779 167.703C314.216 164.577 319.042 159.683 323.256 153.022L331.82 158.528C326.518 166.684 320.333 172.733 313.265 176.675C306.332 180.481 298.176 182.384 288.796 182.384Z" fill="white"/>
<path d="M417.615 119.99C417.615 111.97 415.848 105.717 412.314 101.231C408.779 96.745 403.206 94.5021 395.594 94.5021C390.292 94.5021 385.534 95.7935 381.32 98.3762C377.242 100.823 373.98 104.221 371.533 108.571C369.222 112.921 368.067 117.815 368.067 123.252V180.345H357.464V96.0125L368.067 86.5499V106.125C370.65 99.3278 374.524 94.0263 379.689 90.2201C384.991 86.4139 391.108 84.5108 398.041 84.5108C407.828 84.5108 415.304 87.6373 420.47 93.8904C425.635 100.007 428.218 108.3 428.218 118.767V180.345H417.615V119.99Z" fill="white"/>
<path d="M454.498 184.219H465.305C465.305 190.065 466.664 195.298 469.383 199.92C472.101 204.542 475.908 208.212 480.801 210.931C485.831 213.649 491.608 215.009 498.133 215.009C503.978 215.009 509.484 213.649 514.649 210.931C519.815 208.212 524.029 203.93 527.291 198.085C530.689 192.375 532.389 185.035 532.389 176.063V86.5499H542.992V178.306C542.992 186.802 540.885 195.774 536.671 202.978C532.457 210.319 526.951 215.824 520.155 219.495C513.358 223.165 506.017 225 498.133 225C489.569 225 481.957 223.301 475.296 219.902C468.771 216.504 463.673 211.678 460.003 205.425C456.333 199.308 454.498 192.24 454.498 184.219ZM452.255 133.448C452.255 123.252 454.294 114.553 458.372 107.348C462.45 100.007 467.887 94.3661 474.684 90.424C481.617 86.4819 489.229 84.5108 497.521 84.5108C505.677 84.5108 512.678 86.6858 518.523 91.0357C524.368 95.2497 532.389 108.88 532.389 116.799C535.787 124.139 537.282 124.068 537.282 133.448C537.282 142.691 535.583 151.051 532.185 158.528C528.922 165.868 524.368 171.713 518.523 176.063C512.678 180.277 505.677 182.384 497.521 182.384C489.229 182.384 481.617 180.413 474.684 176.471C467.887 172.529 462.45 166.888 458.372 159.547C454.294 152.207 452.255 143.507 452.255 133.448ZM463.062 133.448C463.062 141.604 464.625 148.604 467.751 154.45C471.014 160.295 475.364 164.781 480.801 167.907C486.375 170.898 492.424 172.393 498.949 172.393C504.794 172.393 510.231 170.694 515.261 167.295C520.426 163.897 524.572 159.275 527.699 153.43C530.825 147.449 532.389 140.652 532.389 133.04C532.389 127.602 531.505 122.573 529.738 117.951C527.971 113.329 525.456 109.251 522.194 105.717C519.067 102.182 515.465 99.4637 511.387 97.5606C507.445 95.5216 503.299 94.5021 498.949 94.5021C492.424 94.5021 486.375 96.0653 480.801 99.1918C475.364 102.182 471.014 106.6 467.751 112.446C464.625 118.291 463.062 125.291 463.062 133.448Z" fill="white"/>
<path d="M574.111 37.6132L584.714 47.5114V180.345H574.111V37.6132Z" fill="white"/>
<path d="M608.766 133.448C608.766 123.932 610.873 115.504 615.087 108.164C619.301 100.823 625.011 95.0458 632.215 90.8318C639.556 86.6178 647.78 84.5108 656.887 84.5108C665.995 84.5108 674.151 86.6178 681.356 90.8318C688.696 95.0458 694.473 100.823 698.687 108.164C702.901 115.504 705.008 123.932 705.008 133.448C705.008 142.827 702.901 151.255 698.687 158.732C694.473 166.072 688.696 171.849 681.356 176.063C674.151 180.277 665.995 182.384 656.887 182.384C647.78 182.384 639.556 180.277 632.215 176.063C625.011 171.849 619.301 166.072 615.087 158.732C610.873 151.255 608.766 142.827 608.766 133.448ZM619.573 133.448C619.573 141.06 621.204 147.789 624.467 153.634C627.729 159.479 632.147 164.101 637.72 167.499C643.43 170.762 649.819 172.393 656.887 172.393C663.956 172.393 670.277 170.762 675.85 167.499C681.56 164.101 686.045 159.479 689.308 153.634C692.57 147.789 694.202 141.06 694.202 133.448C694.202 125.971 692.57 119.31 689.308 113.465C686.045 107.484 681.56 102.862 675.85 99.5997C670.277 96.2013 663.956 94.5021 656.887 94.5021C649.819 94.5021 643.43 96.2013 637.72 99.5997C632.147 102.862 627.729 107.416 624.467 113.261C621.204 119.106 619.573 125.835 619.573 133.448Z" fill="white"/>
<path d="M711.769 86.5499H723.595L748.879 159.139L772.695 90.8318H779.414L804.749 159.343L830.033 86.5499H841.859L805.361 185.851L775.999 107.756L748.268 185.851L711.769 86.5499Z" fill="white"/>
<path fill-rule="evenodd" clip-rule="evenodd" d="M62.1242 126.474C82.3122 126.474 98.6779 110.108 98.6779 89.9202C98.6779 69.7321 82.3122 53.3665 62.1242 53.3665C41.9362 53.3665 25.5706 69.7321 25.5706 89.9202C25.5706 93.7719 26.1664 97.4846 27.2708 100.971C29.5793 108.259 29.4805 116.835 24.075 122.24L17.5673 128.748C16.9556 129.36 16.104 129.652 15.2389 129.652C6.90034 129.652 0.140625 136.412 0.140625 144.751C0.140625 153.089 6.90034 159.849 15.2389 159.849C16.7452 159.849 18.2 159.628 19.5727 159.218C25.5709 157.423 31.8218 154.116 37.9122 155.567L68.2577 162.795C71.4487 163.555 73.2481 166.899 73.2481 170.179C73.2481 181.151 82.1425 190.045 93.1142 190.045C104.086 190.045 112.98 181.151 112.98 170.179C112.98 159.208 104.086 150.313 93.1142 150.313C91.1015 150.313 89.1586 150.613 87.3278 151.169C82.9979 152.485 78.4458 153.821 74.0435 152.773L33.9487 143.222C31.6434 142.673 29.9766 140.686 28.9987 138.527C27.6229 135.49 27.438 131.689 29.7954 129.332L33.4127 125.715C37.2224 121.905 43.2157 121.673 48.1965 123.727C52.4891 125.497 57.1926 126.474 62.1242 126.474ZM62.1242 116.612C47.3826 116.612 35.4321 104.662 35.4321 89.9202C35.4321 75.1785 47.3826 63.2281 62.1242 63.2281C76.8659 63.2281 88.8163 75.1785 88.8163 89.9202C88.8163 104.662 76.8659 116.612 62.1242 116.612Z" fill="white"/>
<path fill-rule="evenodd" clip-rule="evenodd" d="M25.2137 28.2626C25.8091 28.6225 26.4312 28.9397 27.0763 29.2102C32.9603 32.6466 36.9626 39.4138 36.9626 47.2C36.9626 50.9198 36.0491 54.407 34.4535 57.4095C45.7147 52.5259 53.5915 41.3132 53.5915 28.2617C53.5915 17.2167 47.9504 7.48855 39.3909 1.7987C37.3417 0.651091 34.9981 -3.05176e-05 32.5084 -3.05176e-05C24.4724 -3.05176e-05 17.958 6.78314 17.958 15.1506C17.958 20.7501 20.8753 25.6401 25.2137 28.2626Z" fill="white"/>
<path fill-rule="evenodd" clip-rule="evenodd" d="M78.2293 40.5928C77.8247 40.5337 77.4252 40.4448 77.0343 40.3256C73.0833 39.686 68.6358 41.2955 65.542 44.8894C64.064 46.6063 63.0797 48.5614 62.5879 50.5508C59.5799 44.0368 60.574 35.8819 65.7599 29.8578C70.1485 24.7598 76.4927 22.4035 82.5148 23.0151C83.8712 23.2606 85.1597 23.8466 86.2538 24.7884C89.7849 27.8282 89.9522 33.4233 86.6275 37.2855C84.4026 39.87 81.1777 41.0235 78.2293 40.5928Z" fill="white"/>
</svg>
