<svg width="242" height="65" viewBox="0 0 242 65" fill="none" xmlns="http://www.w3.org/2000/svg">
<path d="M43.6863 13.1121L41.1683 10H69.5571L45.4908 48.7813H66.371L68.6224 51.8934H40L64.0662 13.1121H43.6863Z" fill="white"/>
<path d="M83.5612 52.4918C81.1467 52.4918 79.0049 51.8734 77.1357 50.6366C75.2665 49.3997 73.7867 47.704 72.6963 45.5495C71.6449 43.3551 71.1192 40.8614 71.1192 38.0686C71.1192 35.2757 71.6643 32.802 72.7547 30.6474C73.8451 28.4929 75.3638 26.8172 77.3109 25.6202C79.258 24.3834 81.4972 23.765 84.0285 23.765C86.4818 23.765 88.6236 24.3435 90.4539 25.5005C92.3231 26.6576 93.764 28.2735 94.7765 30.3482C95.8279 32.383 96.3536 34.737 96.3536 37.4102C96.3536 37.6496 96.3342 37.909 96.2952 38.1882C96.2952 38.4675 96.2757 38.7069 96.2368 38.9064H73.0468V36.2133H93.9587L92.6736 38.0686C92.7515 37.8691 92.8294 37.6097 92.9073 37.2905C93.0241 36.9314 93.0825 36.5923 93.0825 36.2731C93.0825 34.3979 92.6736 32.7222 91.8558 31.2459C91.077 29.7697 90.0061 28.6126 88.6431 27.7748C87.2801 26.9369 85.7419 26.518 84.0285 26.518C82.0424 26.518 80.3095 26.9967 78.8297 27.9543C77.3888 28.872 76.2595 30.1886 75.4417 31.9042C74.6239 33.58 74.215 35.5749 74.215 37.889C74.215 40.243 74.6045 42.2978 75.3833 44.0533C76.2011 45.8088 77.3304 47.1654 78.7713 48.123C80.2511 49.0805 81.9645 49.5593 83.9116 49.5593C85.9756 49.5593 87.7669 49.1005 89.2856 48.1828C90.8433 47.2651 92.2258 45.8288 93.433 43.8738L95.8863 45.4897C94.3676 47.8836 92.5957 49.659 90.5707 50.8161C88.5847 51.9333 86.2482 52.4918 83.5612 52.4918Z" fill="white"/>
<path d="M120.465 34.1785C120.465 31.8244 119.958 29.9891 118.946 28.6725C117.933 27.3558 116.337 26.6975 114.156 26.6975C112.637 26.6975 111.274 27.0765 110.067 27.8346C108.899 28.5528 107.964 29.5502 107.263 30.827C106.601 32.1037 106.27 33.5401 106.27 35.136V51.8934H103.233V27.1408L106.27 24.3634V30.1088C107.01 28.1139 108.12 26.5579 109.6 25.4407C111.118 24.3235 112.871 23.765 114.857 23.765C117.661 23.765 119.803 24.6826 121.282 26.518C122.762 28.3134 123.502 30.7472 123.502 33.8194V51.8934H120.465V34.1785Z" fill="white"/>
<path d="M131.031 53.0305H134.126C134.126 54.7461 134.516 56.2822 135.295 57.6387C136.074 58.9953 137.164 60.0725 138.566 60.8705C140.007 61.6685 141.662 62.0675 143.531 62.0675C145.205 62.0675 146.783 61.6685 148.262 60.8705C149.742 60.0725 150.949 58.8157 151.884 57.1001C152.858 55.4244 153.344 53.2699 153.344 50.6366V24.3634H156.382V51.2949C156.382 53.7885 155.778 56.4218 154.571 58.5365C153.364 60.691 151.787 62.3069 149.84 63.3841C147.892 64.4614 145.79 65 143.531 65C141.078 65 138.897 64.5013 136.989 63.5038C135.119 62.5063 133.659 61.09 132.608 59.2546C131.556 57.4592 131.031 55.3845 131.031 53.0305ZM130.388 38.1284C130.388 35.136 130.972 32.5825 132.14 30.4679C133.309 28.3134 134.866 26.6576 136.813 25.5005C138.799 24.3435 140.98 23.765 143.356 23.765C145.692 23.765 147.698 24.4033 149.372 25.6801C151.047 26.9169 153.344 30.9176 153.344 33.2418C154.318 35.3963 154.746 35.3754 154.746 38.1284C154.746 40.8415 154.259 43.2952 153.286 45.4897C152.351 47.6442 151.047 49.3598 149.372 50.6366C147.698 51.8734 145.692 52.4918 143.356 52.4918C140.98 52.4918 138.799 51.9133 136.813 50.7563C134.866 49.5992 133.309 47.9434 132.14 45.7889C130.972 43.6344 130.388 41.0809 130.388 38.1284ZM133.484 38.1284C133.484 40.5223 133.932 42.5771 134.827 44.2927C135.762 46.0083 137.008 47.325 138.566 48.2427C140.162 49.1204 141.895 49.5593 143.765 49.5593C145.439 49.5593 146.997 49.0606 148.438 48.0631C149.917 47.0657 151.105 45.7091 152.001 43.9935C152.897 42.2379 153.344 40.243 153.344 38.0087C153.344 36.4128 153.091 34.9365 152.585 33.58C152.079 32.2234 151.358 31.0265 150.424 29.9891C149.528 28.9518 148.496 28.1538 147.328 27.5952C146.198 26.9967 145.011 26.6975 143.765 26.6975C141.895 26.6975 140.162 27.1563 138.566 28.074C137.008 28.9518 135.762 30.2485 134.827 31.9641C133.932 33.6797 133.484 35.7345 133.484 38.1284Z" fill="white"/>
<path d="M165.297 10L168.334 12.9052V51.8934H165.297V10Z" fill="white"/>
<path d="M175.225 38.1284C175.225 35.3355 175.828 32.8618 177.035 30.7073C178.243 28.5528 179.878 26.8571 181.942 25.6202C184.045 24.3834 186.401 23.765 189.01 23.765C191.619 23.765 193.956 24.3834 196.02 25.6202C198.123 26.8571 199.778 28.5528 200.985 30.7073C202.192 32.8618 202.796 35.3355 202.796 38.1284C202.796 40.8814 202.192 43.3551 200.985 45.5495C199.778 47.704 198.123 49.3997 196.02 50.6366C193.956 51.8734 191.619 52.4918 189.01 52.4918C186.401 52.4918 184.045 51.8734 181.942 50.6366C179.878 49.3997 178.243 47.704 177.035 45.5495C175.828 43.3551 175.225 40.8814 175.225 38.1284ZM178.321 38.1284C178.321 40.3627 178.788 42.3377 179.722 44.0533C180.657 45.769 181.923 47.1255 183.519 48.123C185.155 49.0805 186.985 49.5593 189.01 49.5593C191.035 49.5593 192.846 49.0805 194.443 48.123C196.078 47.1255 197.363 45.769 198.298 44.0533C199.232 42.3377 199.7 40.3627 199.7 38.1284C199.7 35.934 199.232 33.979 198.298 32.2633C197.363 30.5078 196.078 29.1513 194.443 28.1937C192.846 27.1962 191.035 26.6975 189.01 26.6975C186.985 26.6975 185.155 27.1962 183.519 28.1937C181.923 29.1513 180.657 30.4878 179.722 32.2035C178.788 33.9191 178.321 35.8941 178.321 38.1284Z" fill="white"/>
<path d="M204.732 24.3634H208.12L215.364 45.6692L222.186 25.6202H224.111L231.369 45.7291L238.612 24.3634H242L231.544 53.5093L223.133 30.5876L215.188 53.5093L204.732 24.3634Z" fill="white"/>
<path fill-rule="evenodd" clip-rule="evenodd" d="M17.8307 36.3858C23.6387 36.3858 28.347 31.6775 28.347 25.8695C28.347 20.0616 23.6387 15.3533 17.8307 15.3533C12.0227 15.3533 7.31445 20.0616 7.31445 25.8695C7.31445 26.7429 7.42093 27.5915 7.6216 28.4028C8.24144 30.9091 8.23507 33.8179 6.40951 35.6434L5.01247 37.0405C4.83677 37.2162 4.59215 37.3003 4.34367 37.3003C1.94473 37.3003 0 39.245 0 41.644C0 44.0429 1.94473 45.9876 4.34367 45.9876C6.90525 45.9876 9.605 44.455 12.0969 45.0486L19.5975 46.8352C20.5155 47.0539 21.0331 48.0158 21.0331 48.9594C21.0331 52.1159 23.592 54.6748 26.7485 54.6748C29.905 54.6748 32.4638 52.1159 32.4638 48.9594C32.4638 45.8029 29.905 43.2441 26.7485 43.2441C24.3781 43.2441 21.9246 44.1096 19.6187 43.5603L9.72636 41.2039C9.06313 41.046 8.58358 40.4742 8.30221 39.8532C7.90631 38.9794 7.85304 37.8858 8.53135 37.2075L9.57159 36.1673C10.6673 35.0715 12.3912 35.0046 13.8237 35.5955C15.0587 36.1048 16.4119 36.3858 17.8307 36.3858ZM17.8307 33.8699C13.4122 33.8699 9.83033 30.288 9.83033 25.8695C9.83033 21.451 13.4122 17.8692 17.8307 17.8692C22.2492 17.8692 25.8311 21.451 25.8311 25.8695C25.8311 30.288 22.2492 33.8699 17.8307 33.8699Z" fill="white"/>
<path fill-rule="evenodd" clip-rule="evenodd" d="M7.21241 8.13098C7.3837 8.23452 7.56269 8.32578 7.74827 8.40359C9.44107 9.39223 10.5925 11.3391 10.5925 13.5792C10.5925 14.6493 10.3297 15.6526 9.87064 16.5164C13.1104 15.1114 15.3765 11.8856 15.3765 8.13074C15.3765 4.95314 13.7536 2.15442 11.2911 0.517483C10.7016 0.187324 10.0273 0 9.31105 0C6.99916 0 5.125 1.95148 5.125 4.35875C5.125 5.96968 5.96429 7.3765 7.21241 8.13098Z" fill="white"/>
<path fill-rule="evenodd" clip-rule="evenodd" d="M22.4653 11.6784C22.3489 11.6614 22.2339 11.6359 22.1215 11.6016C20.9848 11.4175 19.7053 11.8806 18.8152 12.9145C18.39 13.4085 18.1068 13.9709 17.9653 14.5433C17.1 12.6693 17.3859 10.3231 18.8779 8.59003C20.1405 7.12337 21.9657 6.44548 23.6982 6.62145C24.0884 6.69206 24.4591 6.86066 24.7739 7.1316C25.7897 8.00614 25.8379 9.61582 24.8814 10.7269C24.2413 11.4705 23.3135 11.8023 22.4653 11.6784Z" fill="white"/>
</svg>
