<svg width="121" height="33" viewBox="0 0 121 33" fill="none" xmlns="http://www.w3.org/2000/svg">
<path d="M21.8431 6.55604L20.5841 5H34.7785L22.7454 24.3906H33.1855L34.3112 25.9467H20L32.0331 6.55604H21.8431Z" fill="white"/>
<path d="M41.7806 26.2459C40.5734 26.2459 39.5025 25.9367 38.5679 25.3183C37.6332 24.6999 36.8933 23.852 36.3482 22.7748C35.8224 21.6775 35.5596 20.4307 35.5596 19.0343C35.5596 17.6378 35.8322 16.401 36.3774 15.3237C36.9226 14.2465 37.6819 13.4086 38.6555 12.8101C39.629 12.1917 40.7486 11.8825 42.0142 11.8825C43.2409 11.8825 44.3118 12.1717 45.227 12.7503C46.1616 13.3288 46.882 14.1367 47.3882 15.1741C47.914 16.1915 48.1768 17.3685 48.1768 18.7051C48.1768 18.8248 48.1671 18.9545 48.1476 19.0941C48.1476 19.2338 48.1379 19.3535 48.1184 19.4532H36.5234V18.1066H46.9793L46.3368 19.0343C46.3757 18.9345 46.4147 18.8049 46.4536 18.6453C46.512 18.4657 46.5412 18.2962 46.5412 18.1366C46.5412 17.1989 46.3368 16.3611 45.9279 15.623C45.5385 14.8848 45.003 14.3063 44.3215 13.8874C43.6401 13.4684 42.871 13.259 42.0142 13.259C41.0212 13.259 40.1547 13.4984 39.4148 13.9771C38.6944 14.436 38.1298 15.0943 37.7209 15.9521C37.312 16.79 37.1075 17.7875 37.1075 18.9445C37.1075 20.1215 37.3022 21.1489 37.6917 22.0267C38.1005 22.9044 38.6652 23.5827 39.3856 24.0615C40.1255 24.5403 40.9823 24.7797 41.9558 24.7797C42.9878 24.7797 43.8835 24.5502 44.6428 24.0914C45.4217 23.6326 46.1129 22.9144 46.7165 21.9369L47.9432 22.7448C47.1838 23.9418 46.2979 24.8295 45.2854 25.4081C44.2923 25.9666 43.1241 26.2459 41.7806 26.2459Z" fill="white"/>
<path d="M60.2323 17.0892C60.2323 15.9122 59.9792 14.9946 59.4729 14.3362C58.9667 13.6779 58.1684 13.3487 57.078 13.3487C56.3186 13.3487 55.6371 13.5383 55.0335 13.9173C54.4494 14.2764 53.9821 14.7751 53.6316 15.4135C53.3006 16.0519 53.1351 16.77 53.1351 17.568V25.9467H51.6163V13.5704L53.1351 12.1817V15.0544C53.505 14.0569 54.06 13.2789 54.7999 12.7203C55.5592 12.1618 56.4354 11.8825 57.4285 11.8825C58.8304 11.8825 59.9013 12.3413 60.6412 13.259C61.3811 14.1567 61.751 15.3736 61.751 16.9097V25.9467H60.2323V17.0892Z" fill="white"/>
<path d="M65.5153 26.5152H67.0632C67.0632 27.373 67.2579 28.1411 67.6473 28.8194C68.0368 29.4976 68.5819 30.0363 69.2829 30.4353C70.0033 30.8342 70.8308 31.0337 71.7655 31.0337C72.6027 31.0337 73.3913 30.8342 74.1312 30.4353C74.8711 30.0363 75.4747 29.4079 75.942 28.5501C76.4288 27.7122 76.6722 26.6349 76.6722 25.3183V12.1817H78.1909V25.6474C78.1909 26.8943 77.8891 28.2109 77.2855 29.2682C76.6819 30.3455 75.8933 31.1534 74.9198 31.6921C73.9462 32.2307 72.8948 32.5 71.7655 32.5C70.5388 32.5 69.4484 32.2506 68.4943 31.7519C67.5597 31.2532 66.8296 30.545 66.3038 29.6273C65.7781 28.7296 65.5153 27.6922 65.5153 26.5152ZM65.194 19.0642C65.194 17.568 65.486 16.2913 66.0702 15.234C66.6543 14.1567 67.4332 13.3288 68.4067 12.7503C69.3997 12.1717 70.4901 11.8825 71.6778 11.8825C72.8461 11.8825 73.8489 12.2017 74.6861 12.84C75.5234 13.4585 76.6722 15.4588 76.6722 16.6209C77.1589 17.6982 77.3731 17.6877 77.3731 19.0642C77.3731 20.4207 77.1297 21.6476 76.643 22.7448C76.1757 23.8221 75.5234 24.6799 74.6861 25.3183C73.8489 25.9367 72.8461 26.2459 71.6778 26.2459C70.4901 26.2459 69.3997 25.9567 68.4067 25.3781C67.4332 24.7996 66.6543 23.9717 66.0702 22.8944C65.486 21.8172 65.194 20.5404 65.194 19.0642ZM66.7419 19.0642C66.7419 20.2612 66.9658 21.2885 67.4137 22.1464C67.881 23.0042 68.5041 23.6625 69.2829 24.1213C70.0812 24.5602 70.9477 24.7797 71.8823 24.7797C72.7195 24.7797 73.4984 24.5303 74.2188 24.0316C74.9587 23.5328 75.5526 22.8546 76.0004 21.9967C76.4483 21.119 76.6722 20.1215 76.6722 19.0044C76.6722 18.2064 76.5456 17.4683 76.2925 16.79C76.0394 16.1117 75.6791 15.5132 75.2118 14.9946C74.764 14.4759 74.248 14.0769 73.6639 13.7976C73.0992 13.4984 72.5054 13.3487 71.8823 13.3487C70.9477 13.3487 70.0812 13.5782 69.2829 14.037C68.5041 14.4759 67.881 15.1242 67.4137 15.982C66.9658 16.8399 66.7419 17.8672 66.7419 19.0642Z" fill="white"/>
<path d="M82.6483 5L84.1671 6.45261V25.9467H82.6483V5Z" fill="white"/>
<path d="M87.6123 19.0642C87.6123 17.6678 87.9141 16.4309 88.5177 15.3536C89.1213 14.2764 89.9391 13.4285 90.9711 12.8101C92.0225 12.1917 93.2005 11.8825 94.5051 11.8825C95.8096 11.8825 96.9779 12.1917 98.0098 12.8101C99.0613 13.4285 99.8888 14.2764 100.492 15.3536C101.096 16.4309 101.398 17.6678 101.398 19.0642C101.398 20.4407 101.096 21.6775 100.492 22.7748C99.8888 23.852 99.0613 24.6999 98.0098 25.3183C96.9779 25.9367 95.8096 26.2459 94.5051 26.2459C93.2005 26.2459 92.0225 25.9367 90.9711 25.3183C89.9391 24.6999 89.1213 23.852 88.5177 22.7748C87.9141 21.6775 87.6123 20.4407 87.6123 19.0642ZM89.1603 19.0642C89.1603 20.1814 89.3939 21.1688 89.8612 22.0267C90.3285 22.8845 90.9613 23.5627 91.7596 24.0615C92.5774 24.5403 93.4926 24.7797 94.5051 24.7797C95.5176 24.7797 96.423 24.5403 97.2213 24.0615C98.0391 23.5627 98.6816 22.8845 99.1489 22.0267C99.6162 21.1688 99.8499 20.1814 99.8499 19.0642C99.8499 17.967 99.6162 16.9895 99.1489 16.1317C98.6816 15.2539 98.0391 14.5756 97.2213 14.0968C96.423 13.5981 95.5176 13.3487 94.5051 13.3487C93.4926 13.3487 92.5774 13.5981 91.7596 14.0968C90.9613 14.5756 90.3285 15.2439 89.8612 16.1017C89.3939 16.9596 89.1603 17.947 89.1603 19.0642Z" fill="white"/>
<path d="M102.366 12.1817H104.06L107.682 22.8346L111.093 12.8101H112.055L115.684 22.8645L119.306 12.1817H121L115.772 26.7546L111.566 15.2938L107.594 26.7546L102.366 12.1817Z" fill="white"/>
<path fill-rule="evenodd" clip-rule="evenodd" d="M8.91504 18.193C11.819 18.193 14.1732 15.8389 14.1732 12.9349C14.1732 10.0309 11.819 7.67676 8.91504 7.67676C6.01105 7.67676 3.65691 10.0309 3.65691 12.9349C3.65691 13.3714 3.7101 13.7955 3.81036 14.201C4.12021 15.4544 4.11703 16.9091 3.20408 17.822L2.50527 18.5208C2.41767 18.6084 2.29572 18.6504 2.17183 18.6504C0.972364 18.6504 0 19.6228 0 20.8222C0 22.0217 0.972364 22.9941 2.17183 22.9941C3.45263 22.9941 4.8025 22.2278 6.04843 22.5245L9.79876 23.4179C10.2577 23.5272 10.5166 24.0082 10.5166 24.48C10.5166 26.0582 11.796 27.3377 13.3742 27.3377C14.9525 27.3377 16.2319 26.0582 16.2319 24.48C16.2319 22.9017 14.9525 21.6223 13.3742 21.6223C12.1891 21.6223 10.9623 22.055 9.80936 21.7804L4.86328 20.6023C4.53161 20.5233 4.29179 20.2373 4.15106 19.9268C3.95303 19.4898 3.92633 18.9428 4.26559 18.6035L4.78552 18.0836C5.33332 17.5358 6.1951 17.5023 6.91127 17.7977C7.52883 18.0525 8.20552 18.193 8.91504 18.193ZM8.91504 16.9351C6.70579 16.9351 4.91485 15.1441 4.91485 12.9349C4.91485 10.7256 6.70579 8.9347 8.91504 8.9347C11.1243 8.9347 12.9152 10.7256 12.9152 12.9349C12.9152 15.1441 11.1243 16.9351 8.91504 16.9351Z" fill="white"/>
<path fill-rule="evenodd" clip-rule="evenodd" d="M3.6062 4.06549C3.69185 4.11726 3.78135 4.16289 3.87414 4.2018C4.72054 4.69612 5.29624 5.66955 5.29624 6.78958C5.29624 7.32466 5.16485 7.82628 4.93532 8.25819C6.55522 7.55569 7.68827 5.94279 7.68827 4.06537C7.68827 2.47657 6.87681 1.07721 5.64555 0.258742C5.35079 0.0936618 5.01366 0 4.65552 0C3.49958 0 2.5625 0.975738 2.5625 2.17937C2.5625 2.98484 2.98215 3.68825 3.6062 4.06549Z" fill="white"/>
<path fill-rule="evenodd" clip-rule="evenodd" d="M11.2326 5.83934C11.1744 5.83084 11.117 5.81805 11.0607 5.80091C10.4924 5.70889 9.85264 5.94042 9.4076 6.45739C9.19499 6.70436 9.05342 6.98559 8.98266 7.27177C8.54998 6.33475 8.69297 5.16169 9.43894 4.29514C10.0702 3.5618 10.9828 3.22286 11.8491 3.31085C12.0442 3.34615 12.2296 3.43045 12.3869 3.56592C12.8949 4.00319 12.9189 4.80803 12.4407 5.36359C12.1206 5.73536 11.6567 5.90129 11.2326 5.83934Z" fill="white"/>
</svg>
