<svg width="30" height="31" viewBox="0 0 30 31" fill="none" xmlns="http://www.w3.org/2000/svg">
<path fill-rule="evenodd" clip-rule="evenodd" d="M25.6291 4.50507C22.8089 1.60149 19.0584 0.00169531 15.0627 0C6.82937 0 0.128584 6.89082 0.125287 15.3602C0.124157 18.0676 0.81187 20.7104 2.11909 23.04L0 31L7.91857 28.8638C10.1004 30.0878 12.5569 30.7328 15.0566 30.7336H15.0629C23.2954 30.7336 29.9969 23.8422 30 15.3725C30.0017 11.2678 28.4494 7.40852 25.6291 4.50507ZM15.0627 28.1393H15.0575C12.8299 28.1383 10.645 27.5227 8.73854 26.3596L8.28543 26.0828L3.58641 27.3505L4.8406 22.639L4.54528 22.1559C3.30249 20.1231 2.6462 17.7735 2.64733 15.3611C2.64992 8.32156 8.21954 2.59441 15.0677 2.59441C18.3839 2.59552 21.5012 3.92528 23.8451 6.33863C26.1891 8.75198 27.4792 11.9598 27.4781 15.3715C27.4752 22.4115 21.9059 28.1393 15.0627 28.1393ZM21.8728 18.5768C21.4996 18.3846 19.6646 17.4564 19.3223 17.3281C18.9805 17.2 18.7314 17.1362 18.4828 17.5203C18.2339 17.9044 17.5187 18.7691 17.3009 19.0251C17.083 19.2813 16.8656 19.3134 16.4923 19.1212C16.119 18.9292 14.9164 18.5237 13.4907 17.2161C12.3813 16.1983 11.6323 14.9414 11.4145 14.5574C11.197 14.1729 11.4126 13.9852 11.5782 13.774C11.9822 13.258 12.3868 12.7171 12.5112 12.4611C12.6357 12.2048 12.5734 11.9807 12.4799 11.7886C12.3868 11.5966 11.6404 9.70731 11.3294 8.93856C11.0263 8.19044 10.7188 8.29143 10.4895 8.27976C10.2721 8.26857 10.0232 8.26629 9.77423 8.26629C9.52545 8.26629 9.12104 8.3622 8.77886 8.7467C8.43682 9.131 7.47276 10.0595 7.47276 11.9487C7.47276 13.838 8.81013 15.663 8.9967 15.9192C9.18322 16.1755 11.6286 20.0523 15.3725 21.7147C16.263 22.1106 16.9581 22.3465 17.5003 22.5234C18.3945 22.8155 19.2079 22.7743 19.8511 22.6755C20.5683 22.5652 22.0592 21.7469 22.3704 20.8504C22.6814 19.9538 22.6814 19.1854 22.5879 19.0251C22.4948 18.865 22.2459 18.7691 21.8728 18.5768Z" fill="black"/>
</svg>
